<?xml version="1.0" encoding="UTF-8" standalone="no"?>
<!-- Generator: Adobe Illustrator 14.0.0, SVG Export Plug-In  -->

<svg
   xmlns:osb="http://www.openswatchbook.org/uri/2009/osb"
   xmlns:dc="http://purl.org/dc/elements/1.1/"
   xmlns:cc="http://creativecommons.org/ns#"
   xmlns:rdf="http://www.w3.org/1999/02/22-rdf-syntax-ns#"
   xmlns:svg="http://www.w3.org/2000/svg"
   xmlns="http://www.w3.org/2000/svg"
   xmlns:xlink="http://www.w3.org/1999/xlink"
   xmlns:sodipodi="http://sodipodi.sourceforge.net/DTD/sodipodi-0.dtd"
   xmlns:inkscape="http://www.inkscape.org/namespaces/inkscape"
   version="1.1"
   x="0px"
   y="0px"
   width="250"
   height="249.66446"
   viewBox="-0.866 -0.866 250 249.66446"
   enable-background="new -0.866 -0.866 285 285"
   xml:space="preserve"
   id="svg2"
   inkscape:version="0.91 r13725"
   sodipodi:docname="nhos_icon_white-on-trans.svg"
   inkscape:export-filename="/home/robd/Development/nhos-project/nhos-identity/icon/nhos_icon_white-on-trans_100.png"
   inkscape:export-xdpi="32.400002"
   inkscape:export-ydpi="32.400002"><metadata
     id="metadata12"><rdf:RDF><cc:Work
         rdf:about=""><dc:format>image/svg+xml</dc:format><dc:type
           rdf:resource="http://purl.org/dc/dcmitype/StillImage" /><dc:title></dc:title></cc:Work></rdf:RDF></metadata><sodipodi:namedview
     pagecolor="#ffffff"
     bordercolor="#666666"
     borderopacity="1"
     objecttolerance="10"
     gridtolerance="10"
     guidetolerance="10"
     inkscape:pageopacity="0"
     inkscape:pageshadow="2"
     inkscape:window-width="1920"
     inkscape:window-height="1027"
     id="namedview10"
     showgrid="false"
     inkscape:zoom="2.045"
     inkscape:cx="15.584096"
     inkscape:cy="144.6222"
     inkscape:window-x="0"
     inkscape:window-y="327"
     inkscape:window-maximized="1"
     inkscape:current-layer="svg2"
     fit-margin-top="0"
     fit-margin-left="0"
     fit-margin-right="0"
     fit-margin-bottom="0" /><defs
     id="defs4"><linearGradient
       inkscape:collect="always"
       xlink:href="#linearGradient4313"
       id="linearGradient4199"
       gradientUnits="userSpaceOnUse"
       gradientTransform="matrix(2.4259262,0,0,2.4259259,162.38796,-279.04421)"
       x1="274.85745"
       y1="211.66621"
       x2="353.25461"
       y2="211.66621" /><linearGradient
       id="linearGradient4313"
       osb:paint="solid"><stop
         style="stop-color:#ffffff;stop-opacity:1;"
         offset="0"
         id="stop4315" /></linearGradient><linearGradient
       inkscape:collect="always"
       xlink:href="#linearGradient4313"
       id="linearGradient4323"
       x1="222.68666"
       y1="262.83502"
       x2="420.7554"
       y2="262.83502"
       gradientUnits="userSpaceOnUse" /><linearGradient
       inkscape:collect="always"
       xlink:href="#linearGradient4313"
       id="linearGradient4183"
       gradientUnits="userSpaceOnUse"
       gradientTransform="matrix(2.4790165,0,0,2.4790162,69.951491,-301.53784)"
       x1="-37.650234"
       y1="214.15514"
       x2="171.01089"
       y2="214.15514" /><linearGradient
       inkscape:collect="always"
       xlink:href="#linearGradient4313"
       id="linearGradient4364"
       gradientUnits="userSpaceOnUse"
       x1="222.68666"
       y1="262.83502"
       x2="420.7554"
       y2="262.83502" /><linearGradient
       inkscape:collect="always"
       xlink:href="#linearGradient4313"
       id="linearGradient4366"
       gradientUnits="userSpaceOnUse"
       x1="222.68666"
       y1="262.83502"
       x2="420.7554"
       y2="262.83502" /><linearGradient
       inkscape:collect="always"
       xlink:href="#linearGradient4313"
       id="linearGradient4368"
       gradientUnits="userSpaceOnUse"
       x1="222.68666"
       y1="262.83502"
       x2="420.7554"
       y2="262.83502" /><linearGradient
       inkscape:collect="always"
       xlink:href="#linearGradient4313"
       id="linearGradient4370"
       gradientUnits="userSpaceOnUse"
       x1="222.68666"
       y1="262.83502"
       x2="420.7554"
       y2="262.83502" /><linearGradient
       inkscape:collect="always"
       xlink:href="#linearGradient4313"
       id="linearGradient4372"
       gradientUnits="userSpaceOnUse"
       x1="222.68666"
       y1="262.83502"
       x2="420.7554"
       y2="262.83502" /><linearGradient
       inkscape:collect="always"
       xlink:href="#linearGradient4313"
       id="linearGradient4374"
       gradientUnits="userSpaceOnUse"
       x1="222.68666"
       y1="262.83502"
       x2="420.7554"
       y2="262.83502" /><linearGradient
       inkscape:collect="always"
       xlink:href="#linearGradient4313"
       id="linearGradient4376"
       gradientUnits="userSpaceOnUse"
       x1="222.68666"
       y1="262.83502"
       x2="420.7554"
       y2="262.83502" /><linearGradient
       inkscape:collect="always"
       xlink:href="#linearGradient4313"
       id="linearGradient4378"
       gradientUnits="userSpaceOnUse"
       x1="222.68666"
       y1="262.83502"
       x2="420.7554"
       y2="262.83502" /><linearGradient
       inkscape:collect="always"
       xlink:href="#linearGradient4313"
       id="linearGradient4380"
       gradientUnits="userSpaceOnUse"
       x1="222.68666"
       y1="262.83502"
       x2="420.7554"
       y2="262.83502" /><linearGradient
       inkscape:collect="always"
       xlink:href="#linearGradient4313"
       id="linearGradient4382"
       gradientUnits="userSpaceOnUse"
       x1="222.68666"
       y1="262.83502"
       x2="420.7554"
       y2="262.83502" /><linearGradient
       inkscape:collect="always"
       xlink:href="#linearGradient4313"
       id="linearGradient4236"
       gradientUnits="userSpaceOnUse"
       gradientTransform="matrix(0.3653746,0,0,0.36537451,73.205696,44.239072)"
       x1="274.85745"
       y1="211.66621"
       x2="353.25461"
       y2="211.66621" /><linearGradient
       inkscape:collect="always"
       xlink:href="#linearGradient4313"
       id="linearGradient4240"
       gradientUnits="userSpaceOnUse"
       gradientTransform="matrix(0.37337063,0,0,0.37337062,60.36454,38.979839)"
       x1="-37.650234"
       y1="214.15514"
       x2="171.01089"
       y2="214.15514" /></defs><text
     xml:space="preserve"
     style="font-style:italic;font-variant:normal;font-weight:500;font-stretch:normal;font-size:59.9540062px;line-height:125%;font-family:Ubuntu;-inkscape-font-specification:'Ubuntu, Medium Italic';text-align:start;letter-spacing:0px;word-spacing:0px;writing-mode:lr-tb;text-anchor:start;fill:#ffffff;fill-opacity:1;stroke:url(#linearGradient4240);stroke-width:0.37336826;stroke-linecap:butt;stroke-linejoin:miter;stroke-miterlimit:4;stroke-dasharray:none;stroke-opacity:1"
     x="41.517555"
     y="139.71317"
     id="text4148"
     sodipodi:linespacing="125%"
     transform="scale(0.95944732,1.0422667)"
     inkscape:export-xdpi="53.599998"
     inkscape:export-ydpi="53.599998"><tspan
       sodipodi:role="line"
       id="tspan4150"
       x="41.517555"
       y="139.71317"
       style="font-style:italic;font-variant:normal;font-weight:500;font-stretch:normal;font-size:59.9540062px;line-height:125%;font-family:Ubuntu;-inkscape-font-specification:'Ubuntu, Medium Italic';text-align:start;writing-mode:lr-tb;text-anchor:start;fill:#ffffff;fill-opacity:1;stroke:url(#linearGradient4240);stroke-width:0.37336826;stroke-miterlimit:4;stroke-dasharray:none;stroke-opacity:1">NH</tspan></text>
<text
     xml:space="preserve"
     style="font-style:italic;font-variant:normal;font-weight:500;font-stretch:normal;font-size:58.67024994px;line-height:125%;font-family:Ubuntu;-inkscape-font-specification:'Ubuntu, Medium Italic';text-align:start;letter-spacing:0px;word-spacing:0px;writing-mode:lr-tb;text-anchor:start;fill:url(#linearGradient4236);fill-opacity:1;stroke:#ffffff;stroke-width:0.36537459px;stroke-linecap:butt;stroke-linejoin:miter;stroke-opacity:1"
     x="172.05412"
     y="141.93498"
     id="text4148-2"
     sodipodi:linespacing="125%"
     transform="scale(0.98072233,1.0196566)"
     inkscape:export-xdpi="53.599998"
     inkscape:export-ydpi="53.599998"><tspan
       sodipodi:role="line"
       id="tspan4150-8"
       x="172.05412"
       y="141.93498"
       style="font-style:italic;font-variant:normal;font-weight:500;font-stretch:normal;font-size:58.67024994px;line-height:125%;font-family:Ubuntu;-inkscape-font-specification:'Ubuntu, Medium Italic';text-align:start;writing-mode:lr-tb;text-anchor:start;fill:url(#linearGradient4236);fill-opacity:1;stroke:#ffffff;stroke-width:0.36537459px;stroke-opacity:1">S</tspan></text>
<g
     id="g4173"
     transform="matrix(0.16934558,0,0,0.21990779,92.762476,66.16678)"
     style="fill:#ffffff;fill-opacity:1;stroke:url(#linearGradient4323);stroke-width:1.00097191;stroke-miterlimit:4;stroke-dasharray:none;stroke-opacity:1"><g
       transform="matrix(0.32200615,0,0,0.32200615,222.91247,164.02664)"
       id="g3"
       style="fill:#ffffff;fill-opacity:1;stroke:url(#linearGradient4382);stroke-width:3.10854936;stroke-miterlimit:4;stroke-dasharray:none;stroke-opacity:1"><g
         id="g5"
         style="fill:#ffffff;fill-opacity:1;stroke:url(#linearGradient4380);stroke-width:3.10854936;stroke-miterlimit:4;stroke-dasharray:none;stroke-opacity:1"><path
           inkscape:connector-curvature="0"
           d="m 594.389,274.302 c -12.418,-12.462 -27.193,-18.836 -44.311,-18.836 -17.118,0 -31.555,6.087 -43.981,18.478 -12.418,12.39 -18.463,27.215 -18.463,44.332 0,17.117 5.959,31.656 18.127,43.975 12.332,12.462 27.193,18.478 44.317,18.478 17.124,0 31.893,-6.088 44.311,-18.478 12.419,-12.462 18.464,-26.857 18.464,-43.975 0,-17.117 -6.045,-31.584 -18.464,-43.974 z"
           id="path7"
           style="fill:#ffffff;fill-opacity:1;stroke:url(#linearGradient4364);stroke-width:3.10854936;stroke-miterlimit:4;stroke-dasharray:none;stroke-opacity:1" /><path
           inkscape:connector-curvature="0"
           d="m 474.542,438.453 c -16.114,0 -29.543,5.371 -40.623,16.472 -11.079,11.029 -16.45,24.136 -16.45,39.893 0,15.827 5.285,29.292 16.45,40.68 10.994,11.101 24.509,16.4 40.623,16.4 15.777,0 28.869,-5.371 39.949,-16.4 11.416,-11.459 17.124,-24.853 17.124,-40.68 0,-15.757 -5.787,-28.791 -17.124,-39.893 -11.166,-11.029 -24.172,-16.472 -39.949,-16.472 z"
           id="path9"
           style="fill:#ffffff;fill-opacity:1;stroke:url(#linearGradient4366);stroke-width:3.10854936;stroke-miterlimit:4;stroke-dasharray:none;stroke-opacity:1" /><path
           inkscape:connector-curvature="0"
           d="m 482.936,213.855 c 18.463,0 34.577,-6.732 48.006,-20.125 13.429,-13.464 20.14,-29.579 20.14,-48.343 0,-19.123 -6.718,-35.237 -20.14,-48.701 C 517.85,83.58 501.736,76.919 482.936,76.919 c -19.137,0 -35.251,6.661 -48.343,19.767 -13.429,13.464 -20.14,29.579 -20.14,48.701 0,18.764 6.718,34.878 20.14,48.343 13.428,13.393 29.543,20.125 48.343,20.125 z"
           id="path11"
           style="fill:#ffffff;fill-opacity:1;stroke:url(#linearGradient4368);stroke-width:3.10854936;stroke-miterlimit:4;stroke-dasharray:none;stroke-opacity:1" /><path
           inkscape:connector-curvature="0"
           d="m 297.284,511.289 c -14.102,0 -26.27,4.942 -36.253,15.112 -9.819,9.955 -14.768,22.13 -14.768,36.597 0,14.109 4.956,26.284 14.768,35.882 9.991,9.883 22.159,14.825 36.253,14.825 14.438,0 26.435,-5.157 36.254,-14.825 9.99,-9.812 15.104,-21.772 15.104,-35.882 0,-14.467 -5.035,-26.856 -15.104,-36.955 -9.733,-9.74 -21.815,-14.754 -36.254,-14.754 z"
           id="path13"
           style="fill:#ffffff;fill-opacity:1;stroke:url(#linearGradient4370);stroke-width:3.10854936;stroke-miterlimit:4;stroke-dasharray:none;stroke-opacity:1" /><path
           inkscape:connector-curvature="0"
           d="M 297.284,0 C 276.808,0 259.347,7.09 244.916,21.486 230.478,35.953 223.43,53.07 223.43,73.553 c 0,20.483 7.047,38.245 21.486,52.711 14.438,14.396 31.892,21.486 52.368,21.486 20.476,0 37.937,-7.09 52.368,-21.486 14.438,-14.467 21.822,-32.229 21.822,-52.711 0,-20.482 -7.384,-37.6 -21.822,-52.067 C 335.221,7.09 317.76,0 297.284,0 Z"
           id="path15"
           style="fill:#ffffff;fill-opacity:1;stroke:url(#linearGradient4372);stroke-width:3.10854936;stroke-miterlimit:4;stroke-dasharray:none;stroke-opacity:1" /><path
           inkscape:connector-curvature="0"
           d="m 120.363,179.263 c 9.067,0 17.447,-3.008 24.171,-9.74 13.436,-13.393 13.436,-35.237 0,-48.629 -6.725,-6.732 -15.104,-9.74 -24.171,-9.74 -8.73,0 -17.002,3.08 -23.835,9.74 -13.987,13.536 -13.987,35.093 0,48.629 6.833,6.661 15.112,9.74 23.835,9.74 z"
           id="path17"
           style="fill:#ffffff;fill-opacity:1;stroke:url(#linearGradient4374);stroke-width:3.10854936;stroke-miterlimit:4;stroke-dasharray:none;stroke-opacity:1" /><path
           inkscape:connector-curvature="0"
           d="m 120.363,445.472 c -12.418,0 -22.997,4.87 -32.229,13.822 -8.895,8.522 -13.429,19.122 -13.429,31.513 0,12.461 4.362,23.204 13.429,32.229 9.067,9.096 19.81,13.751 32.229,13.751 12.419,0 23.162,-4.655 32.229,-13.751 9.067,-9.024 13.429,-19.768 13.429,-32.229 0,-12.391 -4.533,-22.99 -13.429,-31.513 -9.232,-8.952 -19.802,-13.822 -32.229,-13.822 z"
           id="path19"
           style="fill:#ffffff;fill-opacity:1;stroke:url(#linearGradient4376);stroke-width:3.10854936;stroke-miterlimit:4;stroke-dasharray:none;stroke-opacity:1" /><path
           inkscape:connector-curvature="0"
           d="m 68.669,290.058 c -7.721,-7.735 -16.788,-11.745 -27.867,-11.745 -11.079,0 -20.812,4.01 -28.533,11.745 -7.721,7.735 -11.416,17.117 -11.416,28.217 0,11.029 3.695,20.77 11.416,28.505 7.721,7.734 17.454,11.459 28.533,11.459 11.079,0 20.139,-3.725 27.867,-11.459 7.72,-7.735 11.752,-17.476 11.752,-28.505 -0.007,-11.1 -4.032,-20.483 -11.752,-28.217 z"
           id="path21"
           style="fill:#ffffff;fill-opacity:1;stroke:url(#linearGradient4378);stroke-width:3.10854936;stroke-miterlimit:4;stroke-dasharray:none;stroke-opacity:1" /></g></g></g></svg>