<?xml version="1.0" encoding="UTF-8" standalone="no"?>
<!-- Created with Inkscape (http://www.inkscape.org/) -->

<svg
   xmlns:dc="http://purl.org/dc/elements/1.1/"
   xmlns:cc="http://creativecommons.org/ns#"
   xmlns:rdf="http://www.w3.org/1999/02/22-rdf-syntax-ns#"
   xmlns:svg="http://www.w3.org/2000/svg"
   xmlns="http://www.w3.org/2000/svg"
   xmlns:sodipodi="http://sodipodi.sourceforge.net/DTD/sodipodi-0.dtd"
   xmlns:inkscape="http://www.inkscape.org/namespaces/inkscape"
   width="224.77356mm"
   height="42.419292mm"
   viewBox="0 0 796.44175 150.30458"
   id="svg2"
   version="1.1"
   inkscape:version="0.91 r13725"
   sodipodi:docname="nhos_banner_blue.svg"
   inkscape:export-filename="/home/robd/Development/nhsbuntu-project/nhsbuntu-base/identity/nhsbuntu-logo/nhsbuntu_logo.png"
   inkscape:export-xdpi="53.599998"
   inkscape:export-ydpi="53.599998">
  <defs
     id="defs4" />
  <sodipodi:namedview
     id="base"
     pagecolor="#000000"
     bordercolor="#666666"
     borderopacity="1.0"
     inkscape:pageopacity="0"
     inkscape:pageshadow="2"
     inkscape:zoom="1.4"
     inkscape:cx="201.53962"
     inkscape:cy="34.240458"
     inkscape:document-units="px"
     inkscape:current-layer="layer1"
     showgrid="false"
     inkscape:window-width="1920"
     inkscape:window-height="1027"
     inkscape:window-x="0"
     inkscape:window-y="327"
     inkscape:window-maximized="1"
     fit-margin-top="0"
     fit-margin-left="0"
     fit-margin-right="0"
     fit-margin-bottom="0"
     inkscape:snap-text-baseline="true" />
  <metadata
     id="metadata7">
    <rdf:RDF>
      <cc:Work
         rdf:about="">
        <dc:format>image/svg+xml</dc:format>
        <dc:type
           rdf:resource="http://purl.org/dc/dcmitype/StillImage" />
        <dc:title></dc:title>
      </cc:Work>
    </rdf:RDF>
  </metadata>
  <g
     inkscape:label="Layer 1"
     inkscape:groupmode="layer"
     id="layer1"
     transform="translate(50.499976,-143.32899)">
    <text
       xml:space="preserve"
       style="font-style:italic;font-variant:normal;font-weight:500;font-stretch:normal;font-size:160.57501221px;line-height:125%;font-family:Ubuntu;-inkscape-font-specification:'Ubuntu, Medium Italic';text-align:start;letter-spacing:0px;word-spacing:0px;writing-mode:lr-tb;text-anchor:start;fill:#007ac2;fill-opacity:1;stroke:none;stroke-width:1px;stroke-linecap:butt;stroke-linejoin:miter;stroke-opacity:1"
       x="-50.477962"
       y="267.38574"
       id="text4148"
       sodipodi:linespacing="125%"
       transform="scale(0.95944732,1.0422667)"
       inkscape:export-xdpi="53.599998"
       inkscape:export-ydpi="53.599998"><tspan
         sodipodi:role="line"
         id="tspan4150"
         x="-50.477962"
         y="267.38574"
         style="font-style:normal;font-variant:normal;font-weight:500;font-stretch:normal;font-size:160.57501221px;line-height:125%;font-family:Ubuntu;-inkscape-font-specification:'Ubuntu, Medium';text-align:start;writing-mode:lr-tb;text-anchor:start">NH</tspan></text>
    <text
       inkscape:export-ydpi="53.599998"
       inkscape:export-xdpi="53.599998"
       transform="scale(0.95944732,1.0422667)"
       sodipodi:linespacing="100%"
       id="text4139"
       y="197.07196"
       x="755.93866"
       style="font-style:italic;font-variant:normal;font-weight:500;font-stretch:normal;font-size:60px;line-height:100%;font-family:Ubuntu;-inkscape-font-specification:'Ubuntu, Medium Italic';text-align:end;letter-spacing:0px;word-spacing:0px;writing-mode:lr-tb;text-anchor:end;fill:#007ac2;fill-opacity:1;stroke:none;stroke-width:1px;stroke-linecap:butt;stroke-linejoin:miter;stroke-opacity:1"
       xml:space="preserve"><tspan
         sodipodi:role="line"
         id="tspan4145"
         x="755.93866"
         y="197.07196">an OS</tspan><tspan
         sodipodi:role="line"
         id="tspan4147"
         x="755.93866"
         y="257.07196">for the NHS</tspan></text>
    <text
       xml:space="preserve"
       style="font-style:italic;font-variant:normal;font-weight:500;font-stretch:normal;font-size:160.57501221px;line-height:125%;font-family:Ubuntu;-inkscape-font-specification:'Ubuntu, Medium Italic';text-align:start;letter-spacing:0px;word-spacing:0px;writing-mode:lr-tb;text-anchor:start;fill:#007ac2;fill-opacity:1;stroke:none;stroke-width:1px;stroke-linecap:butt;stroke-linejoin:miter;stroke-opacity:1"
       x="270.54019"
       y="267.38574"
       id="text4148-2"
       sodipodi:linespacing="125%"
       transform="scale(0.95944732,1.0422667)"
       inkscape:export-xdpi="53.599998"
       inkscape:export-ydpi="53.599998"><tspan
         sodipodi:role="line"
         id="tspan4150-8"
         x="270.54019"
         y="267.38574"
         style="font-style:normal;font-variant:normal;font-weight:500;font-stretch:normal;font-size:160.57501221px;line-height:125%;font-family:Ubuntu;-inkscape-font-specification:'Ubuntu, Medium';text-align:start;writing-mode:lr-tb;text-anchor:start">S</tspan></text>
  </g>
  <g
     inkscape:groupmode="layer"
     id="layer2"
     inkscape:label="Layer 2">
    <g
       id="g4173"
       transform="matrix(0.4655475,0,0,0.4655475,115.09579,-34.062263)">
      <path
         style="fill:#007ac2;fill-opacity:1"
         d="m 392.57102,330.40894 c -3.494,3.662 -7.314,7.056 -11.354,10.083 -1.755,1.315 -2.111,3.802 -0.794,5.555 0.779,1.038 1.968,1.586 3.177,1.586 0.829,0 1.662,-0.257 2.374,-0.792 4.389,-3.291 8.541,-6.977 12.338,-10.955 1.511,-1.584 1.453,-4.096 -0.132,-5.609 -1.58,-1.509 -4.094,-1.453 -5.609,0.132 z"
         id="path9"
         inkscape:connector-curvature="0" />
      <path
         style="fill:#007ac2;fill-opacity:1"
         d="m 342.98802,169.63894 c -5.389,-0.901 -10.92,-1.358 -16.44,-1.358 -54.682,0 -99.167,44.485 -99.167,99.167 l 0.001,0.005 c 0,0.002 -0.001,0.003 -0.001,0.003 0.004,1.578 0.039,3.147 0.112,4.708 0.101,2.125 1.852,3.783 3.959,3.783 0.062,0 0.124,-0.002 0.186,-0.004 2.189,-0.103 3.881,-1.958 3.781,-4.147 -0.065,-1.443 -0.1,-2.894 -0.104,-4.353 0.002,-50.303 40.927,-91.229 91.233,-91.229 5.082,0 10.173,0.42 15.131,1.249 0.221,0.037 0.441,0.054 0.658,0.054 1.906,0 3.583,-1.373 3.909,-3.312 0.36,-2.161 -1.097,-4.204 -3.258,-4.566 z"
         id="path11"
         inkscape:connector-curvature="0" />
      <path
         style="fill:#007ac2;fill-opacity:1"
         d="m 368.35302,348.56094 c -4.493,2.322 -9.208,4.276 -14.023,5.814 -2.084,0.666 -3.238,2.9 -2.568,4.985 0.538,1.685 2.096,2.762 3.777,2.762 0.399,0 0.806,-0.062 1.209,-0.19 5.233,-1.672 10.362,-3.8 15.247,-6.322 1.944,-1.007 2.708,-3.399 1.704,-5.346 -1.008,-1.945 -3.406,-2.714 -5.346,-1.703 z"
         id="path13"
         inkscape:connector-curvature="0" />
      <path
         style="fill:#007ac2;fill-opacity:1"
         d="m 387.86102,189.49694 c -1.72,-1.356 -4.215,-1.056 -5.57,0.66 -1.356,1.722 -1.061,4.217 0.658,5.572 3.971,3.128 7.709,6.61 11.11,10.353 0.783,0.86 1.86,1.297 2.936,1.297 0.953,0 1.91,-0.341 2.669,-1.033 1.619,-1.474 1.739,-3.982 0.267,-5.603 -3.699,-4.062 -7.759,-7.846 -12.07,-11.246 z"
         id="path15"
         inkscape:connector-curvature="0" />
      <path
         style="fill:#007ac2;fill-opacity:1"
         d="m 374.08602,180.39594 c -4.842,-2.646 -9.921,-4.894 -15.1,-6.686 -2.073,-0.724 -4.331,0.38 -5.048,2.45 -0.717,2.071 0.384,4.329 2.452,5.046 4.761,1.648 9.436,3.719 13.891,6.152 0.604,0.331 1.255,0.486 1.898,0.486 1.406,0 2.766,-0.746 3.486,-2.065 1.051,-1.924 0.342,-4.333 -1.579,-5.383 z"
         id="path17"
         inkscape:connector-curvature="0" />
      <path
         style="fill:#007ac2;fill-opacity:1"
         d="m 414.81402,303.39994 c -2.003,-0.918 -4.346,-0.033 -5.257,1.956 -2.104,4.594 -4.61,9.049 -7.449,13.236 -1.228,1.813 -0.755,4.278 1.058,5.509 0.682,0.463 1.457,0.684 2.223,0.684 1.271,0 2.522,-0.61 3.289,-1.741 3.083,-4.552 5.807,-9.392 8.092,-14.387 0.91,-1.992 0.035,-4.347 -1.956,-5.257 z"
         id="path19"
         inkscape:connector-curvature="0" />
      <path
         style="fill:#007ac2;fill-opacity:1"
         d="m 421.69702,272.54594 c -2.22,-0.18 -4.114,1.397 -4.319,3.578 -0.476,5.038 -1.379,10.064 -2.681,14.941 -0.566,2.117 0.689,4.292 2.808,4.858 0.341,0.091 0.686,0.136 1.027,0.136 1.751,0 3.355,-1.172 3.827,-2.944 1.418,-5.303 2.398,-10.769 2.913,-16.246 0.21,-2.183 -1.394,-4.118 -3.575,-4.323 z"
         id="path21"
         inkscape:connector-curvature="0" />
      <path
         style="fill:#007ac2;fill-opacity:1"
         d="m 410.44002,231.53094 c 0.647,1.501 2.111,2.402 3.645,2.402 0.523,0 1.058,-0.105 1.565,-0.323 2.014,-0.866 2.944,-3.2 2.08,-5.212 -2.173,-5.051 -4.78,-9.952 -7.747,-14.563 -1.185,-1.844 -3.641,-2.371 -5.481,-1.189 -1.844,1.185 -2.374,3.639 -1.189,5.481 2.731,4.244 5.129,8.753 7.127,13.404 z"
         id="path23"
         inkscape:connector-curvature="0" />
      <path
         style="fill:#007ac2;fill-opacity:1"
         d="m 248.62502,314.92594 c -1.143,-1.869 -3.583,-2.458 -5.454,-1.317 -1.871,1.143 -2.46,3.585 -1.317,5.454 2.867,4.687 6.14,9.169 9.739,13.318 0.786,0.906 1.891,1.369 2.998,1.369 0.922,0 1.848,-0.32 2.599,-0.968 1.654,-1.435 1.832,-3.942 0.399,-5.595 -3.313,-3.822 -6.331,-7.946 -8.964,-12.261 z"
         id="path25"
         inkscape:connector-curvature="0" />
      <path
         style="fill:#007ac2;fill-opacity:1"
         d="m 339.53602,357.76494 c -4.974,0.709 -10.13,0.998 -15.162,0.891 -2.235,-0.173 -4.009,1.681 -4.059,3.872 -0.05,2.191 1.685,4.008 3.874,4.057 0.782,0.02 1.569,0.029 2.359,0.029 4.73,0 9.479,-0.335 14.112,-0.998 2.169,-0.308 3.676,-2.319 3.366,-4.486 -0.31,-2.17 -2.332,-3.695 -4.49,-3.365 z"
         id="path27"
         inkscape:connector-curvature="0" />
      <path
         style="fill:#007ac2;fill-opacity:1"
         d="m 415.23202,245.92894 c 1.185,4.904 1.968,9.95 2.324,14.999 0.143,2.092 1.887,3.69 3.951,3.69 0.093,0 0.186,-0.004 0.283,-0.01 2.185,-0.153 3.831,-2.049 3.676,-4.234 -0.384,-5.491 -1.232,-10.978 -2.526,-16.312 -0.515,-2.129 -2.661,-3.44 -4.788,-2.921 -2.13,0.515 -3.435,2.66 -2.92,4.788 z"
         id="path29"
         inkscape:connector-curvature="0" />
      <path
         style="fill:#007ac2;fill-opacity:1"
         d="m 241.82602,301.36194 c -1.887,-4.701 -3.382,-9.583 -4.443,-14.509 -0.465,-2.142 -2.58,-3.494 -4.714,-3.041 -2.142,0.463 -3.502,2.574 -3.041,4.714 1.158,5.361 2.781,10.672 4.831,15.787 0.624,1.549 2.111,2.493 3.684,2.493 0.492,0 0.992,-0.093 1.476,-0.287 2.033,-0.815 3.021,-3.123 2.207,-5.157 z"
         id="path31"
         inkscape:connector-curvature="0" />
      <path
         style="fill:#007ac2;fill-opacity:1"
         d="m 280.92302,346.47094 c -4.37,-2.528 -8.565,-5.445 -12.466,-8.671 -1.697,-1.404 -4.199,-1.158 -5.586,0.529 -1.398,1.687 -1.158,4.188 0.527,5.584 4.242,3.508 8.801,6.678 13.55,9.427 0.628,0.362 1.309,0.533 1.983,0.533 1.371,0 2.704,-0.709 3.436,-1.981 1.101,-1.898 0.451,-4.323 -1.444,-5.421 z"
         id="path33"
         inkscape:connector-curvature="0" />
      <path
         style="fill:#007ac2;fill-opacity:1"
         d="m 309.27102,357.04794 c -4.966,-0.951 -9.882,-2.328 -14.612,-4.094 -2.053,-0.765 -4.339,0.277 -5.102,2.33 -0.767,2.053 0.275,4.337 2.328,5.104 5.144,1.919 10.494,3.418 15.898,4.451 0.252,0.048 0.5,0.072 0.748,0.072 1.867,0 3.529,-1.321 3.893,-3.221 0.411,-2.153 -0.999,-4.231 -3.153,-4.642 z"
         id="path35"
         inkscape:connector-curvature="0" />
      <path
         style="fill:#007ac2;fill-opacity:1"
         d="m 251.18102,271.41394 71.4,0 c 2.192,0 3.967,-1.776 3.967,-3.967 0,-2.19 -1.774,-3.967 -3.967,-3.967 l -71.4,0 c -2.192,0 -3.967,1.776 -3.967,3.967 0,2.191 1.775,3.967 3.967,3.967 z"
         id="path37"
         inkscape:connector-curvature="0" />
    </g>
  </g>
</svg>
